<svg xmlns="http://www.w3.org/2000/svg" xmlns:svg="http://www.w3.org/2000/svg" id="svg8" width="397.501" height="535.198" version="1.1" viewBox="0 0 105.172 141.605"><metadata id="metadata5"/><g id="layer1" transform="translate(5.818044,-159.89612)"><path style="fill:#008033;stroke:#ece7e4;stroke-width:5.10500002;stroke-linecap:square;stroke-linejoin:miter;stroke-miterlimit:4;stroke-dasharray:none;stroke-opacity:1" id="path817" d="m 29.335058,106.73313 c 0,36.79592 0,73.59208 0,110.38851" transform="translate(-22.600602,71.826572)"/><path style="fill:#217821;stroke:#ece7e4;stroke-width:5.10500002;stroke-linecap:square;stroke-linejoin:miter;stroke-miterlimit:4;stroke-dasharray:none;stroke-opacity:1" id="path821" d="m 91.945702,100.84917 c -20.778775,1.94818 -41.557859,3.89638 -62.337254,5.84462" transform="translate(-22.600602,71.826572)"/><path style="fill:#217821;stroke:#ece7e4;stroke-width:5.10500002;stroke-linecap:square;stroke-linejoin:miter;stroke-miterlimit:4;stroke-dasharray:none;stroke-opacity:1" id="path821-6" d="m 91.945703,217.09481 c -20.869904,0 -41.740119,0 -62.610645,0" transform="translate(-22.600602,71.826572)"/><path style="fill:green;stroke:#ece7e4;stroke-width:5.10500002;stroke-linecap:square;stroke-linejoin:miter;stroke-miterlimit:4;stroke-dasharray:none;stroke-opacity:1" id="path843" d="m 91.945702,100.84917 c 0,16.7105 0,33.42127 0,50.1323" transform="translate(-22.600602,71.826572)"/><path style="fill:green;stroke:#ece7e4;stroke-width:5.10500002;stroke-linecap:square;stroke-linejoin:miter;stroke-miterlimit:4;stroke-dasharray:none;stroke-opacity:1" id="path843-5" d="m 91.945703,189.07326 c 0,9.34037 0,18.68089 0,28.02155" transform="translate(-22.600602,71.826572)"/><path style="fill:#d400ff;fill-opacity:1;stroke:#ece7e4;stroke-width:5.10520363;stroke-linecap:butt;stroke-linejoin:miter;stroke-miterlimit:4;stroke-dasharray:none;stroke-opacity:1" id="path865-5" d="m 86.144361,151.63822 c 3.86783,0 7.73538,0 11.60268,0" transform="matrix(3.4259273,0,0,1,-245.52026,71.826572)"/><path style="fill:#d40000;stroke:#ece7e4;stroke-width:5.10500002;stroke-linecap:butt;stroke-linejoin:miter;stroke-miterlimit:4;stroke-dasharray:none;stroke-opacity:1" id="path865-5-6" d="m 86.144361,151.63822 c 3.86783,0 7.73538,0 11.60268,0" transform="matrix(3.4259273,0,0,1,-246.32522,105.11413)"/></g></svg>